<svg width="30" height="32" viewBox="0 0 30 32" fill="none" xmlns="http://www.w3.org/2000/svg">
<path fill-rule="evenodd" clip-rule="evenodd" d="M9.77252 29.8623C6.9836 29.0796 4.06369 28.6848 1.23119 28.3231C0.621118 28.2473 0.0547041 28.6704 0.0111272 29.2666C-0.0760266 29.8631 0.359998 30.4087 0.926497 30.4845C3.67184 30.8327 6.50408 31.2053 9.16227 31.9587C9.72877 32.1221 10.3391 31.7857 10.5134 31.207C10.6877 30.6288 10.339 30.0261 9.77252 29.8623Z" fill="#261A0F"/>
<path fill-rule="evenodd" clip-rule="evenodd" d="M18.2261 18.7662C13.7377 14.1859 8.68273 10.1951 4.28147 5.49186C3.88928 5.05261 3.19205 5.02907 2.75628 5.43913C2.32051 5.84963 2.2771 6.53988 2.71287 6.97914C7.11414 11.6959 12.1691 15.6997 16.6575 20.2936C17.0932 20.7224 17.7903 20.7285 18.2261 20.3067C18.6183 19.8853 18.6618 19.195 18.2261 18.7662Z" fill="#261A0F"/>
<path fill-rule="evenodd" clip-rule="evenodd" d="M26.637 1.14858C26.7677 3.77017 26.8982 6.39175 27.0289 9.01377C27.0289 9.61426 27.5521 10.0779 28.1622 10.0487C28.7723 10.0191 29.2078 9.50793 29.2078 8.90701C29.077 6.28107 28.9466 3.65556 28.8158 1.03005C28.7723 0.429562 28.2492 -0.0310455 27.6392 0.00163711C27.0727 0.0343198 26.5934 0.548528 26.637 1.14858Z" fill="#261A0F"/>
</svg>
