<svg width="32" height="32" viewBox="0 0 32 32" fill="none" xmlns="http://www.w3.org/2000/svg">
<path fill-rule="evenodd" clip-rule="evenodd" d="M14.2429 12.0226C11.2725 9.58082 8.86556 6.673 7.05686 3.28517C6.69512 2.61039 5.85341 2.35299 5.17167 2.71473C4.49689 3.07647 4.23945 3.91822 4.60119 4.59996C6.59075 8.30779 9.22037 11.4939 12.476 14.1721C13.0673 14.6591 13.9508 14.5756 14.4377 13.9843C14.9247 13.386 14.8342 12.5095 14.2429 12.0226Z" fill="#FFCC33"/>
<path fill-rule="evenodd" clip-rule="evenodd" d="M12.659 2.51302C12.812 5.32346 12.9512 8.13389 13.1251 10.9443C13.1738 11.7095 13.8347 12.2939 14.5999 12.2452C15.3651 12.1965 15.9495 11.5356 15.9008 10.7704C15.7268 7.96693 15.5877 5.16347 15.4346 2.35304C15.3929 1.58991 14.732 1.00208 13.9668 1.04521C13.2016 1.08834 12.6103 1.74572 12.659 2.51302Z" fill="#FFCC33"/>
<path fill-rule="evenodd" clip-rule="evenodd" d="M22.9866 3.0835C21.2058 5.76872 19.1885 8.24521 17.1572 10.7496C16.6702 11.3478 16.7606 12.2244 17.3588 12.7044C17.9571 13.1913 18.8337 13.1009 19.3137 12.5026C21.4006 9.93566 23.4737 7.38261 25.3102 4.62087C25.7345 3.98087 25.5536 3.11829 24.9136 2.69394C24.2806 2.26959 23.411 2.4435 22.9866 3.0835Z" fill="#FFCC33"/>
<path fill-rule="evenodd" clip-rule="evenodd" d="M29.8851 13.0661C25.0573 13.2817 19.9303 13.2887 15.1025 12.9826C14.3373 12.9409 13.6764 13.5183 13.6277 14.2904C13.579 15.0556 14.1634 15.7165 14.9286 15.7652C19.8538 16.0713 25.0851 16.0643 30.0104 15.8487C30.7756 15.8139 31.3738 15.16 31.339 14.3948C31.3042 13.6296 30.6503 13.0313 29.8851 13.0661Z" fill="#FFCC33"/>
<path fill-rule="evenodd" clip-rule="evenodd" d="M12.4724 13.9495C15.4498 17.5947 18.5315 21.1704 21.2933 24.9825C21.7454 25.6017 22.615 25.7408 23.2411 25.2886C23.8603 24.8364 23.9993 23.9668 23.5472 23.3477C20.7506 19.4938 17.6342 15.8764 14.622 12.1894C14.135 11.5981 13.2585 11.5077 12.6672 11.9947C12.0689 12.4816 11.9854 13.3582 12.4724 13.9495Z" fill="#FFCC33"/>
<path fill-rule="evenodd" clip-rule="evenodd" d="M13.3741 15.0072C14.1532 18.8054 14.3689 22.4368 14.4245 26.2837C14.4315 27.0489 15.0645 27.6611 15.8297 27.6541C16.6019 27.6402 17.2141 27.0141 17.2002 26.2419C17.1445 22.2141 16.915 18.4228 16.1011 14.4437C15.9411 13.6924 15.2106 13.2054 14.4524 13.3654C13.7011 13.5185 13.2141 14.2559 13.3741 15.0072Z" fill="#FFCC33"/>
<path fill-rule="evenodd" clip-rule="evenodd" d="M13.4996 14.7012C11.2457 19.2091 10.084 24.2178 7.67004 28.6282C7.30134 29.296 7.55173 30.1447 8.22651 30.5134C8.90129 30.8821 9.74309 30.6316 10.1118 29.9638C12.5396 25.5255 13.7152 20.489 15.99 15.9464C16.3309 15.2577 16.0526 14.423 15.3709 14.0751C14.6822 13.7343 13.8474 14.0125 13.4996 14.7012Z" fill="#FFCC33"/>
<path fill-rule="evenodd" clip-rule="evenodd" d="M14.74 13.6782C10.2531 14.4713 5.77308 14.833 1.2583 15.3687C0.493085 15.4591 -0.0495234 16.1478 0.0409114 16.913C0.131346 17.6783 0.820106 18.2209 1.58532 18.1304C6.1488 17.5948 10.6844 17.2191 15.227 16.4191C15.9784 16.28 16.4862 15.5565 16.354 14.8052C16.2149 14.0469 15.4983 13.5391 14.74 13.6782Z" fill="#FFCC33"/>
<path fill-rule="evenodd" clip-rule="evenodd" d="M17.8622 11.5638C16.937 11.5221 16.0604 11.4595 15.1561 11.3273C14.3909 11.216 13.6882 11.7447 13.5769 12.503C13.4656 13.2612 13.9943 13.9708 14.7525 14.0821C15.7543 14.2282 16.7213 14.2977 17.7369 14.3395C18.5021 14.3743 19.156 13.7829 19.1838 13.0108C19.2186 12.2455 18.6274 11.5986 17.8622 11.5638Z" fill="#FFCC33"/>
</svg>
